<svg width="22" height="23" viewBox="0 0 22 23" fill="none" xmlns="http://www.w3.org/2000/svg">
<path d="M19.7465 11.169C19.8403 11.2209 19.9185 11.2969 19.9729 11.3892C20.0273 11.4816 20.056 11.5868 20.056 11.694C20.056 11.8011 20.0273 11.9064 19.9729 11.9987C19.9185 12.091 19.8403 12.1671 19.7465 12.219L2.8345 21.592C2.74322 21.6426 2.6403 21.6685 2.53592 21.6672C2.43155 21.6659 2.32932 21.6374 2.23934 21.5844C2.14936 21.5315 2.07475 21.4561 2.02286 21.3655C1.97098 21.2749 1.94363 21.1724 1.9435 21.068L1.9435 2.31997C1.94355 2.21564 1.9708 2.11313 2.02256 2.02255C2.07432 1.93197 2.1488 1.85645 2.23866 1.80344C2.32852 1.75044 2.43064 1.72178 2.53496 1.72029C2.63927 1.7188 2.74217 1.74454 2.8335 1.79497L19.7465 11.169V11.169Z" stroke="white" stroke-width="2" stroke-linecap="round" stroke-linejoin="round"/>
</svg>
