<?xml version="1.0" standalone="no"?>
<!DOCTYPE svg PUBLIC "-//W3C//DTD SVG 20010904//EN"
 "http://www.w3.org/TR/2001/REC-SVG-20010904/DTD/svg10.dtd">
<svg version="1.0" xmlns="http://www.w3.org/2000/svg"
 width="521.000000pt" height="589.000000pt" viewBox="0 0 521.000000 589.000000"
 preserveAspectRatio="xMidYMid meet">

<g transform="translate(0.000000,589.000000) scale(0.100000,-0.100000)"
fill="#A85432" stroke="none">
<path d="M3289 5862 l-32 -28 104 -84 c157 -126 280 -201 393 -240 l49 -16
-56 -23 c-79 -32 -86 -43 -55 -87 104 -146 281 -316 393 -376 57 -32 59 -33
30 -36 -54 -5 -135 -32 -135 -45 1 -20 96 -194 157 -286 32 -47 87 -115 123
-152 l65 -67 -63 -5 c-35 -3 -68 -9 -72 -13 -12 -13 70 -257 122 -365 26 -52
69 -123 96 -159 28 -36 50 -66 48 -67 -1 -2 -18 2 -37 7 -18 6 -55 10 -80 10
l-47 0 5 -47 c18 -189 68 -394 124 -505 16 -32 28 -58 27 -58 -2 0 -27 9 -56
20 -92 35 -89 38 -97 -107 -10 -185 18 -411 60 -493 8 -16 15 -31 15 -34 0 -2
-23 11 -51 30 -50 33 -95 51 -105 42 -10 -11 -54 -227 -65 -322 -6 -55 -9
-145 -6 -199 l5 -99 -26 24 c-15 14 -42 35 -60 47 l-32 23 -35 -77 c-82 -178
-134 -368 -138 -497 -1 -37 -3 -68 -4 -68 -2 0 -13 17 -27 37 -29 46 -72 93
-85 93 -16 0 -170 -238 -216 -335 -24 -49 -51 -115 -60 -145 -9 -30 -19 -61
-21 -69 -2 -7 -19 15 -37 50 -17 35 -37 65 -44 67 -17 5 -235 -209 -308 -303
-120 -154 -159 -252 -158 -395 1 -47 3 -94 5 -105 8 -50 -498 -227 -832 -290
-221 -41 -386 -56 -675 -62 -497 -9 -875 40 -1273 166 -111 35 -122 37 -122
20 0 -38 415 -148 715 -188 744 -101 1477 -13 2092 249 l119 51 41 -39 c151
-144 402 -148 671 -13 91 46 239 144 299 200 l42 38 -22 20 c-12 12 -42 31
-67 43 l-45 23 60 17 c91 26 130 45 224 107 93 62 232 194 301 287 43 56 43
59 25 72 -20 15 -108 44 -132 44 -27 0 -12 17 25 28 61 18 157 86 234 164 113
117 278 382 252 408 -6 6 -40 16 -76 22 l-66 11 46 34 c90 67 169 172 238 317
46 97 104 261 104 294 0 31 -48 36 -149 16 -20 -4 -15 5 32 56 72 77 117 159
161 291 35 103 76 307 76 375 0 39 -3 40 -83 19 -32 -8 -60 -15 -62 -15 -3 0
8 21 24 48 16 26 39 71 50 99 50 127 81 386 67 546 l-8 77 -26 -6 c-15 -4 -49
-19 -77 -33 -27 -14 -53 -27 -57 -29 -4 -2 6 25 22 60 43 93 64 226 57 373 -5
111 -34 290 -57 350 -10 25 -10 26 -42 9 -18 -9 -48 -28 -66 -42 l-34 -26 9
40 c4 21 8 100 7 174 0 114 -5 151 -27 235 -27 100 -85 257 -112 305 l-14 25
-63 -65 -63 -65 -1 115 c0 102 -4 126 -32 210 -18 52 -58 145 -90 205 l-58
110 -43 3 -43 3 6 -33 c4 -18 18 -82 31 -143 l25 -110 -5 95 c-3 52 -8 111
-12 130 -10 54 15 27 69 -77 148 -280 147 -524 -2 -673 l-43 -43 -49 124
c-121 302 -141 500 -68 657 16 35 30 66 30 68 0 2 -31 3 -69 3 l-68 -1 -6 -58
c-5 -63 -34 -136 -74 -188 l-26 -34 -63 98 c-35 55 -74 118 -86 142 -23 41
-24 42 -77 42 -49 0 -52 -1 -40 -17 13 -16 13 -16 -11 0 -15 11 -43 17 -75 17
l-50 0 44 -20 c24 -11 71 -40 105 -64 75 -54 219 -201 214 -218 -8 -22 -109
-47 -193 -47 -129 -1 -242 48 -430 186 -72 52 -77 58 -54 61 14 2 70 -6 125
-17 54 -11 99 -19 101 -17 4 4 -190 63 -234 72 -18 4 -33 10 -33 13 0 4 19 17
43 28 l42 22 -62 0 c-55 1 -67 -2 -94 -27z m975 -418 c9 -34 16 -66 16 -70 0
-5 -27 33 -60 84 l-60 92 38 52 37 52 6 -74 c4 -41 14 -103 23 -136z m-80 -1
c31 -47 54 -88 52 -91 -3 -2 -26 14 -52 37 -26 23 -75 55 -108 71 l-61 29 30
11 c17 5 39 14 50 19 11 6 23 10 26 10 4 1 32 -38 63 -86z m-166 -11 c110 -35
220 -127 311 -261 49 -73 84 -141 76 -149 -4 -4 -55 -7 -114 -7 -107 0 -108 0
-197 44 -79 39 -103 58 -214 169 -69 69 -120 127 -113 129 6 2 62 -16 124 -41
62 -25 108 -41 103 -36 -5 4 -58 34 -119 66 -60 31 -112 59 -114 61 -8 6 6 13
60 27 74 20 126 19 197 -2z m743 -344 c2 -173 8 -161 28 50 l8 87 17 -40 c34
-74 67 -228 73 -335 9 -162 -24 -265 -115 -362 -41 -44 -99 -85 -107 -76 -7 9
-46 246 -55 338 -20 201 9 334 99 458 17 23 36 42 41 42 6 0 10 -62 11 -162z
m-192 -83 c-6 -38 -9 -108 -7 -157 3 -49 3 -87 0 -84 -6 6 -82 198 -82 207 0
7 93 105 98 103 2 -1 -2 -32 -9 -69z m-109 -87 c10 -24 30 -74 45 -112 l26
-70 -75 80 c-40 44 -90 88 -110 99 -20 11 -36 23 -36 27 0 4 24 9 53 11 28 2
58 4 65 5 7 1 22 -17 32 -40z m-170 -31 c109 -40 232 -192 300 -371 50 -130
53 -119 -31 -114 -178 11 -307 114 -453 358 -26 45 -46 84 -43 87 3 3 52 -25
109 -62 118 -77 113 -65 -14 37 -48 40 -88 75 -88 79 0 25 141 16 220 -14z
m714 -339 c-2 -13 -13 -76 -24 -142 -11 -65 -19 -121 -17 -123 5 -4 67 214 67
235 0 6 4 12 9 12 13 0 31 -163 31 -276 0 -176 -46 -310 -135 -399 -39 -39
-129 -95 -154 -95 -30 0 -19 374 14 505 23 91 71 179 132 245 58 63 83 75 77
38z m-229 -189 c-8 -22 -20 -80 -27 -127 -6 -48 -14 -90 -17 -94 -4 -4 -16 40
-27 97 l-20 104 45 30 c25 16 49 30 53 30 4 1 1 -17 -7 -40z m-338 -35 c112
-54 191 -159 242 -319 29 -89 58 -241 49 -250 -11 -11 -138 37 -195 74 -101
65 -179 181 -248 364 -20 55 -35 103 -33 108 2 5 46 -30 98 -79 l95 -87 -62
75 c-34 41 -76 93 -94 114 l-33 39 64 -6 c37 -4 88 -18 117 -33z m210 2 c2 -1
43 -206 43 -214 0 -4 -20 28 -45 70 -24 41 -60 93 -80 113 -19 21 -35 39 -35
40 0 2 114 -7 117 -9z m478 -508 c-4 -13 -27 -77 -50 -143 -24 -66 -42 -121
-40 -123 1 -2 31 52 64 120 l62 123 -5 -125 c-12 -313 -130 -519 -329 -575
-32 -9 -61 -14 -64 -11 -8 7 14 152 42 277 52 236 146 391 280 462 41 22 48
21 40 -5z m-649 -82 c111 -51 196 -177 229 -340 17 -85 25 -289 12 -303 -12
-11 -109 43 -164 91 -66 58 -118 144 -153 251 -27 87 -67 282 -58 290 2 2 35
-39 73 -90 38 -52 71 -95 73 -95 5 0 -49 98 -111 199 l-21 34 34 -7 c19 -3 57
-17 86 -30z m397 -52 c-15 -27 -42 -92 -60 -144 l-32 -95 -1 85 c0 47 -3 102
-6 123 -5 28 -3 37 7 37 8 0 37 11 64 24 28 13 51 22 53 21 1 -1 -10 -24 -25
-51z m-203 17 l65 -18 2 -119 2 -119 -28 79 c-16 43 -47 105 -70 137 -22 33
-39 59 -38 59 1 -1 31 -9 67 -19z m-223 -554 c124 -78 186 -215 186 -412 0
-107 -17 -249 -33 -275 -12 -20 -105 53 -156 122 -80 109 -117 261 -112 461
l3 112 58 -115 c64 -126 65 -119 6 39 -21 58 -39 106 -39 108 0 6 51 -17 87
-40z m669 -64 c-21 -41 -109 -193 -132 -228 -46 -70 13 -4 87 98 l82 112 -8
-50 c-21 -149 -109 -361 -184 -447 -22 -25 -62 -60 -88 -76 -78 -50 -233 -82
-233 -48 0 32 75 229 130 343 75 153 147 235 252 288 39 19 79 35 90 35 17 0
17 -2 4 -27z m-408 -73 c4 -12 -15 -163 -25 -195 -4 -13 -11 8 -20 57 -7 43
-24 105 -37 137 l-24 59 52 -24 c28 -13 52 -28 54 -34z m152 14 c0 -3 -13 -22
-30 -42 -16 -20 -47 -72 -70 -115 -44 -86 -46 -82 -25 48 8 50 15 93 15 97 0
4 19 9 43 11 23 2 48 4 55 5 6 1 12 -1 12 -4z m-489 -516 c16 -20 42 -63 57
-95 25 -54 27 -66 26 -188 -1 -112 -5 -143 -28 -220 -15 -49 -36 -110 -47
-134 l-19 -45 -38 37 c-93 91 -140 217 -141 376 -1 93 24 289 38 304 7 7 25
-47 60 -173 23 -85 4 81 -25 214 l-6 29 47 -34 c26 -19 60 -50 76 -71z m186
-118 l23 -15 -38 -110 -37 -110 -7 110 c-6 101 -12 134 -34 190 -6 15 3 10 32
-15 21 -19 49 -42 61 -50z m442 -27 c-9 -10 -39 -47 -69 -83 -29 -36 -74 -86
-99 -112 -76 -81 -34 -53 76 48 l104 97 -20 -51 c-130 -328 -319 -495 -533
-468 -35 5 -58 12 -58 20 0 15 87 168 149 261 60 90 173 209 230 243 64 37
138 61 190 62 41 0 43 -1 30 -17z m-293 -36 c-27 -22 -76 -75 -109 -117 -33
-41 -58 -68 -55 -60 3 8 21 61 39 117 l33 102 70 0 70 0 -48 -42z m-599 -317
c13 -14 37 -54 55 -88 74 -149 36 -357 -108 -585 -34 -54 -37 -57 -54 -42 -25
23 -67 112 -85 180 -19 75 -19 156 1 251 16 78 80 273 94 288 4 4 11 -27 15
-70 14 -167 23 -176 24 -25 1 158 0 155 58 91z m210 -264 c-8 -12 -31 -51 -51
-88 -47 -85 -58 -92 -40 -26 7 29 14 91 14 138 l0 84 45 -44 c41 -40 44 -46
32 -64z m119 -14 l49 -7 -52 -32 c-28 -17 -82 -58 -119 -89 l-68 -58 26 44
c14 25 40 71 57 102 21 36 37 55 46 52 7 -3 35 -8 61 -12z m307 -30 c14 -6 4
-19 -55 -68 -40 -33 -99 -79 -130 -103 -32 -24 -58 -45 -58 -48 0 -5 1 -5 128
75 57 35 105 62 108 60 8 -9 -110 -171 -170 -232 -112 -116 -230 -176 -346
-176 -59 0 -155 23 -165 41 -8 13 112 154 217 255 125 119 192 162 303 190 55
14 140 17 168 6z m-917 -299 c21 -79 15 -179 -17 -255 -51 -121 -238 -362
-267 -344 -23 14 -52 136 -52 215 1 100 12 147 64 257 51 108 148 262 154 245
2 -7 -1 -55 -7 -108 -6 -53 -10 -97 -8 -99 5 -5 47 179 47 204 0 10 3 22 7 25
12 13 61 -75 79 -140z m108 -126 l34 -56 -75 -86 c-41 -47 -77 -85 -79 -85 -2
0 3 14 12 32 28 54 53 136 60 199 4 33 8 58 11 56 2 -3 19 -30 37 -60z m181
-122 c15 -5 7 -11 -36 -24 -31 -10 -96 -39 -143 -64 -48 -25 -83 -41 -79 -34
4 7 38 46 76 88 l69 77 46 -19 c26 -10 56 -21 67 -24z m-725 -134 c32 -134
-21 -272 -154 -406 -76 -77 -160 -141 -233 -178 l-32 -17 -7 46 c-10 71 1 183
26 247 12 32 44 91 71 132 50 74 233 274 242 265 3 -3 -12 -54 -33 -115 -21
-60 -41 -119 -44 -130 -9 -28 74 138 103 205 23 53 24 54 36 30 7 -14 18 -49
25 -79z m938 58 c17 -6 32 -14 32 -18 0 -3 -56 -36 -124 -71 -68 -36 -123 -66
-121 -68 2 -2 54 17 117 41 62 25 115 43 118 40 9 -9 -167 -169 -238 -216
-112 -75 -189 -101 -302 -101 -83 -1 -102 3 -150 25 -107 51 -108 44 30 146
287 212 467 275 638 222z m-860 -277 l21 -53 -87 -64 c-47 -35 -88 -62 -90
-61 -2 2 13 26 34 53 34 44 74 120 89 167 7 24 9 22 33 -42z m101 -155 c-24
-5 -87 -21 -139 -37 -52 -16 -96 -28 -97 -26 -1 1 38 32 88 68 l91 66 51 -32
50 -31 -44 -8z m140 -57 c56 -10 151 -48 151 -60 0 -6 -80 -33 -245 -80 -66
-19 -67 -19 -20 -14 28 3 93 14 145 24 52 10 97 17 98 15 7 -7 -96 -75 -178
-119 -143 -75 -228 -99 -350 -100 -127 -1 -193 21 -267 89 l-48 44 109 51
c178 84 285 122 441 154 38 7 113 6 164 -4z"/>
<path d="M4291 2314 c0 -11 3 -14 6 -6 3 7 2 16 -1 19 -3 4 -6 -2 -5 -13z"/>
<path d="M4442 5565 c0 -16 2 -22 5 -12 2 9 2 23 0 30 -3 6 -5 -1 -5 -18z"/>
</g>
</svg>
